<svg width="50" height="46" viewBox="0 0 50 46" fill="none" xmlns="http://www.w3.org/2000/svg">
<path d="M29.5775 44.348C31.7433 44.348 31.3717 40.6026 31.0709 38.5597L27.6093 39.2407C27.6093 41.4538 27.4117 44.348 29.5775 44.348Z" fill="#F8EED9"/>
<path d="M20.2097 44.348C18.2413 44.348 18.0391 40.6026 18.3125 38.5597L21.9062 39.2407C22.2707 41.2836 22.1781 44.348 20.2097 44.348Z" fill="#F8EED9"/>
<path d="M11.2546 7.50205C11.6637 5.56775 12.9401 3.35394 16.1636 4.77128C17.2885 2.04051 21.6225 0.356857 23.527 3.06455C25.1633 1.47159 30.6265 1.08759 30.6265 4.21572C32.2344 3.57258 34.502 3.86161 35.7717 7.50205C36.6292 7.58571 38.9874 8.20322 38.9874 10.004C40.0593 10.3256 41.367 11.4189 40.5953 13.2197C41.6672 13.2579 43.4894 14.0623 42.2031 16.975C42.7255 16.785 43.2502 16.5858 43.7763 16.3771C43.947 16.3093 44.2225 16.2111 44.5155 16.1066L44.6968 16.0419C42.8559 11.0335 36.3913 1.27847 23.8735 1.00539C11.3557 0.732315 4.60709 10.898 2.97078 16.1801C3.32362 16.3528 3.71934 16.5335 4.15543 16.7184C4.4898 16.8602 4.84562 17.0045 5.22233 17.1498C4.1933 14.8915 5.43671 14.0176 6.50862 13.8629C5.86548 11.6119 6.8302 10.004 8.43806 10.004C8.43806 8.71774 9.0812 7.50205 11.2546 7.50205Z" fill="black"/>
<path d="M16.1636 4.77128C12.9401 3.35394 11.6637 5.56775 11.2546 7.50205C9.0812 7.50205 8.43806 8.71774 8.43806 10.004C6.8302 10.004 5.86548 11.6119 6.50862 13.8629C5.43671 14.0176 4.1933 14.8915 5.22233 17.1498C9.35808 18.7457 16.0115 20.4732 24.4474 20.4732C28.1762 20.4732 34.9625 19.6086 42.2031 16.975C43.4894 14.0623 41.6672 13.2579 40.5953 13.2197C41.367 11.4189 40.0593 10.3256 38.9874 10.004C38.9874 8.20322 36.6292 7.58571 35.7717 7.50205C34.502 3.86161 32.2344 3.57258 30.6265 4.21572C30.6265 1.08759 25.1633 1.47159 23.527 3.06455C21.6225 0.356857 17.2885 2.04051 16.1636 4.77128Z" fill="#F8EED9"/>
<path d="M2.05035 15.6944C1.539 23.6591 5.30251 39.5887 24.4474 39.5887C43.5923 39.5887 46.4353 23.6591 45.6172 15.6944C45.4139 15.7835 45.0556 15.9137 44.6968 16.0419L44.5155 16.1066C44.2225 16.2111 43.947 16.3093 43.7763 16.3771C43.2502 16.5858 42.7255 16.785 42.2031 16.975C34.9625 19.6086 28.1762 20.4732 24.4474 20.4732C16.0115 20.4732 9.35808 18.7457 5.22233 17.1498C4.84562 17.0045 4.4898 16.8602 4.15543 16.7184C3.71934 16.5335 3.32362 16.3528 2.97078 16.1801C2.62102 16.009 2.3134 15.8458 2.05035 15.6944Z" fill="white"/>
<path d="M45.6172 15.6944C45.6172 15.6944 45.0556 15.9137 44.6968 16.0419M45.6172 15.6944C46.4353 23.6591 43.5923 39.5887 24.4474 39.5887C5.30251 39.5887 1.539 23.6591 2.05035 15.6944C2.3134 15.8458 2.62102 16.009 2.97078 16.1801M45.6172 15.6944C45.4139 15.7835 45.0556 15.9137 44.6968 16.0419M2.97078 16.1801C3.32362 16.3528 3.71934 16.5335 4.15543 16.7184C4.4898 16.8602 4.84562 17.0045 5.22233 17.1498M2.97078 16.1801C4.60709 10.898 11.3557 0.732315 23.8735 1.00539C36.3913 1.27847 42.8559 11.0335 44.6968 16.0419M44.6968 16.0419C44.6361 16.0636 44.5754 16.0853 44.5155 16.1066M44.6968 16.0419L44.5155 16.1066M44.5155 16.1066C44.2225 16.2111 43.947 16.3093 43.7763 16.3771C43.2502 16.5858 42.7255 16.785 42.2031 16.975M42.2031 16.975C34.9625 19.6086 28.1762 20.4732 24.4474 20.4732C16.0115 20.4732 9.35808 18.7457 5.22233 17.1498M42.2031 16.975C43.4894 14.0623 41.6672 13.2579 40.5953 13.2197C41.367 11.4189 40.0593 10.3256 38.9874 10.004C38.9874 8.20322 36.6292 7.58571 35.7717 7.50205C34.502 3.86161 32.2344 3.57258 30.6265 4.21572C30.6265 1.08759 25.1633 1.47159 23.527 3.06455C21.6225 0.356857 17.2885 2.04051 16.1636 4.77128C12.9401 3.35394 11.6637 5.56775 11.2546 7.50205C9.0812 7.50205 8.43806 8.71774 8.43806 10.004C6.8302 10.004 5.86548 11.6119 6.50862 13.8629C5.43671 14.0176 4.1933 14.8915 5.22233 17.1498" stroke="black"/>
<ellipse cx="29.0195" cy="13.2197" rx="1.92943" ry="1.92943" fill="black"/>
<ellipse cx="18.0862" cy="13.2197" rx="1.92943" ry="1.92943" fill="black"/>
<path d="M22.2666 16.1139C22.6954 16.757 23.8745 17.6574 25.1608 16.1139" stroke="black" stroke-linecap="round"/>
<path d="M44.8196 26.0399L49 28.6125" stroke="black" stroke-linecap="round"/>
<ellipse cx="14.8703" cy="16.4356" rx="1.28629" ry="1.28629" fill="#F786A0"/>
<ellipse cx="32.2355" cy="16.4356" rx="1.28629" ry="1.28629" fill="#F786A0"/>
<path d="M22.9674 21.9623C11.6665 21.9623 6.0738 19.2442 3.81362 18.3743C2.84695 20.6581 6.43409 39.2672 24.5177 39.2672C42.6012 39.2672 45.602 22.9099 44.8195 17.4325C35.5205 20.8249 26.1962 21.8536 22.9674 21.9623Z" fill="#F69200"/>
<path d="M22.3145 22.2241C11.7199 22.2241 5.92313 19.7031 3.80422 18.9387C2.89796 20.9456 6.03257 36.3454 22.9717 36.9979C37.9404 37.5745 43.0114 24.5761 42.2042 18.3652C30.6276 21.581 25.3415 22.1286 22.3145 22.2241Z" fill="#FFA726"/>
<path d="M22.2663 21.9025C12.7312 21.9025 5.2488 19.0506 3.34178 18.3652C2.6986 20.6162 8.50402 33.4605 21.028 34.1223C33.1999 34.7654 39.393 24.8983 38.6665 19.33C29.3409 21.581 24.9907 21.8169 22.2663 21.9025Z" fill="#FFC36C" fill-opacity="0.76"/>
<path d="M18.1838 38.9457C17.9104 40.9886 18.1126 44.734 20.081 44.734C22.0494 44.734 22.142 41.6696 21.7775 39.6267" stroke="black"/>
<path d="M30.7183 38.9457C31.0191 40.9886 31.3908 44.734 29.225 44.734C27.0592 44.734 27.2567 41.8398 27.2567 39.6267" stroke="black"/>
<path d="M6.62904 26.6931C5.68099 25.1535 2.48133 26.6931 1 27.6553L2.18506 30.5419C4.06141 29.9004 7.57709 28.2326 6.62904 26.6931Z" fill="#F8EED9"/>
<path d="M1 27.6553C2.48133 26.6931 5.68099 25.1535 6.62904 26.6931C7.57709 28.2326 4.06141 29.9004 2.18506 30.5419" stroke="black" stroke-linecap="round"/>
</svg>
