<svg width="63" height="30" viewBox="0 0 63 30" fill="none" xmlns="http://www.w3.org/2000/svg">
<path d="M51.2608 28.6986C52.6447 28.6986 52.4072 26.3054 52.215 25L50.0031 25.4351C50.0031 26.8493 49.8769 28.6986 51.2608 28.6986Z" fill="#F8EED9"/>
<path d="M45.2747 28.6986C44.0169 28.6986 43.8877 26.3054 44.0624 25L46.3587 25.4351C46.5916 26.7405 46.5324 28.6986 45.2747 28.6986Z" fill="#F8EED9"/>
<path d="M33.6717 10.3895C33.345 15.4788 35.7498 25.6575 47.9831 25.6575C60.2164 25.6575 62.0331 15.4788 61.5103 10.3895C61.3804 10.4464 61.1514 10.5296 60.9221 10.6116L60.8063 10.6529C60.6191 10.7197 60.4431 10.7824 60.334 10.8257C59.9978 10.9591 59.6625 11.0864 59.3287 11.2078C54.7021 12.8906 50.3657 13.4431 47.9831 13.4431C42.5927 13.4431 38.3413 12.3392 35.6986 11.3195C35.4579 11.2266 35.2305 11.1344 35.0169 11.0438C34.7382 10.9257 34.4853 10.8102 34.2599 10.6998C34.0364 10.5905 33.8398 10.4862 33.6717 10.3895Z" fill="white"/>
<path d="M39.5531 5.15471C39.8145 3.91872 40.6301 2.50413 42.6899 3.40979C43.4087 1.66487 46.178 0.589041 47.395 2.31921C48.4405 1.30134 51.9315 1.05597 51.9315 3.0548C52.9589 2.64384 54.4079 2.82853 55.2191 5.15471C55.7671 5.20816 57.2739 5.60274 57.2739 6.75343C57.9589 6.95891 58.7945 7.65754 58.3013 8.80822C58.9863 8.83259 60.1507 9.34661 59.3287 11.2078C59.6625 11.0864 59.9978 10.9591 60.334 10.8257C60.4431 10.7824 60.6191 10.7197 60.8063 10.6529L60.9221 10.6116C59.7459 7.41121 55.6151 1.17794 47.6164 1.00345C39.6177 0.828954 35.3055 7.32466 34.2599 10.6998C34.4853 10.8102 34.7382 10.9257 35.0169 11.0438C35.2305 11.1344 35.4579 11.2266 35.6986 11.3195C35.0411 9.87642 35.8356 9.31801 36.5205 9.21918C36.1096 7.78082 36.726 6.75343 37.7534 6.75343C37.7534 5.93151 38.1643 5.15471 39.5531 5.15471Z" fill="black"/>
<path d="M42.6899 3.40979C40.6301 2.50413 39.8145 3.91872 39.5531 5.15471C38.1643 5.15471 37.7534 5.93151 37.7534 6.75343C36.726 6.75343 36.1096 7.78082 36.5205 9.21918C35.8356 9.31801 35.0411 9.87642 35.6986 11.3195C38.3413 12.3392 42.5927 13.4431 47.9831 13.4431C50.3657 13.4431 54.7021 12.8906 59.3287 11.2078C60.1507 9.34661 58.9863 8.83259 58.3013 8.80822C58.7945 7.65754 57.9589 6.95891 57.2739 6.75343C57.2739 5.60274 55.7671 5.20816 55.2191 5.15471C54.4079 2.82853 52.9589 2.64384 51.9315 3.0548C51.9315 1.05597 48.4405 1.30134 47.395 2.31921C46.178 0.589041 43.4087 1.66487 42.6899 3.40979Z" fill="#F8EED9"/>
<path d="M34.2599 10.6998C34.0364 10.5905 33.8398 10.4862 33.6717 10.3895C33.345 15.4788 35.7498 25.6575 47.9831 25.6575C60.2164 25.6575 62.0331 15.4788 61.5103 10.3895C61.3804 10.4464 61.1514 10.5296 60.9221 10.6116M34.2599 10.6998C34.4853 10.8102 34.7382 10.9257 35.0169 11.0438C35.2305 11.1344 35.4579 11.2266 35.6986 11.3195M34.2599 10.6998C35.3055 7.32466 39.6177 0.828954 47.6164 1.00345C55.6151 1.17794 59.7459 7.41121 60.9221 10.6116M60.9221 10.6116C60.8834 10.6254 60.8446 10.6392 60.8063 10.6529M60.9221 10.6116L60.8063 10.6529M60.8063 10.6529C60.6191 10.7197 60.4431 10.7824 60.334 10.8257C59.9978 10.9591 59.6625 11.0864 59.3287 11.2078M59.3287 11.2078C54.7021 12.8906 50.3657 13.4431 47.9831 13.4431C42.5927 13.4431 38.3413 12.3392 35.6986 11.3195M59.3287 11.2078C60.1507 9.34661 58.9863 8.83259 58.3013 8.80822C58.7945 7.65754 57.9589 6.95891 57.2739 6.75343C57.2739 5.60274 55.7671 5.20816 55.2191 5.15471C54.4079 2.82853 52.9589 2.64384 51.9315 3.0548C51.9315 1.05597 48.4405 1.30134 47.395 2.31921C46.178 0.589041 43.4087 1.66487 42.6899 3.40979C40.6301 2.50413 39.8145 3.91872 39.5531 5.15471C38.1643 5.15471 37.7534 5.93151 37.7534 6.75343C36.726 6.75343 36.1096 7.78082 36.5205 9.21918C35.8356 9.31801 35.0411 9.87642 35.6986 11.3195" stroke="black"/>
<circle cx="50.9043" cy="8.80832" r="1.23288" fill="black"/>
<circle cx="43.9179" cy="8.80832" r="1.23288" fill="black"/>
<path d="M46.5889 10.6575C46.8628 11.0684 47.6163 11.6438 48.4382 10.6575" stroke="black" stroke-linecap="round"/>
<path d="M34.6714 17.0273L32.0002 18.6712" stroke="black" stroke-linecap="round"/>
<ellipse cx="41.8629" cy="10.8631" rx="0.821918" ry="0.821918" fill="#F786A0"/>
<ellipse cx="52.9589" cy="10.8631" rx="0.821918" ry="0.821918" fill="#F786A0"/>
<path d="M47.0368 14.3945C39.8157 14.3945 36.2421 12.6576 34.7979 12.1018C34.1802 13.5611 36.4723 25.452 48.0274 25.452C59.5825 25.452 61.5 15 61 11.5C55.0581 13.6677 49.1 14.325 47.0368 14.3945Z" fill="#F69200"/>
<path d="M46.6197 14.5618C39.85 14.5618 36.1459 12.9509 34.7919 12.4625C34.2128 13.7449 36.2158 23.5851 47.0396 24.002C56.6044 24.3705 59.8447 16.0647 59.3289 12.0961C51.9316 14.1509 48.5539 14.5008 46.6197 14.5618Z" fill="#FFA726"/>
<path d="M46.589 14.3563C40.4962 14.3563 35.7151 12.534 34.4965 12.0961C34.0856 13.5344 37.7951 21.7417 45.7978 22.1646C53.5754 22.5755 57.5327 16.2706 57.0685 12.7125C51.1096 14.1509 48.3298 14.3016 46.589 14.3563Z" fill="#FFC36C" fill-opacity="0.76"/>
<path d="M43.9801 25.2467C43.8054 26.5521 43.9346 28.9453 45.1924 28.9453C46.4502 28.9453 46.5093 26.9872 46.2764 25.6818" stroke="black"/>
<path d="M51.9894 25.2467C52.1816 26.5521 52.4191 28.9453 51.0352 28.9453C49.6513 28.9453 49.7775 27.096 49.7775 25.6818" stroke="black"/>
<path d="M58.4031 17.8557C59.0089 16.8719 61.0535 17.8557 62 18.4705L61.2428 20.3151C60.0438 19.9052 57.7973 18.8394 58.4031 17.8557Z" fill="#F8EED9"/>
<path d="M62 18.4705C61.0535 17.8557 59.0089 16.8719 58.4031 17.8557C57.7973 18.8394 60.0438 19.9052 61.2428 20.3151" stroke="black" stroke-linecap="round"/>
<path d="M19.2605 28.6986C20.6445 28.6986 20.407 26.3054 20.2148 25L18.0029 25.4351C18.0029 26.8493 17.8766 28.6986 19.2605 28.6986Z" fill="#F8EED9"/>
<path d="M13.2747 28.6986C12.0169 28.6986 11.8877 26.3054 12.0624 25L14.3587 25.4351C14.5916 26.7405 14.5324 28.6986 13.2747 28.6986Z" fill="#F8EED9"/>
<path d="M7.55241 5.15471C7.8138 3.91872 8.62938 2.50413 10.6891 3.40979C11.408 1.66487 14.1773 0.589042 15.3942 2.31921C16.4398 1.30134 19.9307 1.05597 19.9307 3.0548C20.9581 2.64384 22.4071 2.82853 23.2184 5.15471C23.7664 5.20816 25.2732 5.60274 25.2732 6.75343C25.9581 6.95891 26.7938 7.65754 26.3006 8.80822C26.9855 8.83259 28.1499 9.34661 27.328 11.2078C27.6618 11.0864 27.9971 10.9591 28.3333 10.8257C28.4423 10.7824 28.6184 10.7197 28.8056 10.6529L28.9214 10.6116C27.7451 7.41122 23.6144 1.17794 15.6157 1.00345C7.61701 0.828954 3.30474 7.32466 2.25916 10.6998C2.48463 10.8102 2.73748 10.9257 3.01614 11.0438C3.2298 11.1344 3.45716 11.2266 3.69787 11.3195C3.04034 9.87643 3.83486 9.31801 4.51979 9.21918C4.10883 7.78082 4.72527 6.75343 5.75267 6.75343C5.75267 5.93151 6.16363 5.15471 7.55241 5.15471Z" fill="black"/>
<path d="M10.6891 3.40979C8.62938 2.50413 7.8138 3.91872 7.55241 5.15471C6.16363 5.15471 5.75267 5.93151 5.75267 6.75343C4.72527 6.75343 4.10883 7.78082 4.51979 9.21918C3.83486 9.31801 3.04034 9.87643 3.69787 11.3195C6.34055 12.3392 10.592 13.4431 15.9824 13.4431C18.365 13.4431 22.7013 12.8906 27.328 11.2078C28.1499 9.34661 26.9855 8.83259 26.3006 8.80822C26.7938 7.65754 25.9581 6.95891 25.2732 6.75343C25.2732 5.60274 23.7664 5.20816 23.2184 5.15471C22.4071 2.82853 20.9581 2.64384 19.9307 3.0548C19.9307 1.05597 16.4398 1.30134 15.3942 2.31921C14.1773 0.589042 11.408 1.66487 10.6891 3.40979Z" fill="#F8EED9"/>
<path d="M1.67102 10.3895C1.34428 15.4788 3.7491 25.6575 15.9824 25.6575C28.2156 25.6575 30.0323 15.4788 29.5095 10.3895C29.3796 10.4464 29.1507 10.5296 28.9214 10.6116L28.8056 10.6529C28.6184 10.7197 28.4423 10.7824 28.3333 10.8257C27.9971 10.9591 27.6618 11.0864 27.328 11.2078C22.7013 12.8906 18.365 13.4431 15.9824 13.4431C10.592 13.4431 6.34055 12.3392 3.69787 11.3195C3.45716 11.2266 3.2298 11.1344 3.01614 11.0438C2.73748 10.9257 2.48463 10.8102 2.25916 10.6998C2.03568 10.5905 1.83911 10.4862 1.67102 10.3895Z" fill="white"/>
<path d="M29.5095 10.3895C29.5095 10.3895 29.1507 10.5296 28.9214 10.6116M29.5095 10.3895C30.0323 15.4788 28.2156 25.6575 15.9824 25.6575C3.74911 25.6575 1.34428 15.4788 1.67102 10.3895C1.83911 10.4862 2.03568 10.5905 2.25916 10.6998M29.5095 10.3895C29.3796 10.4464 29.1507 10.5296 28.9214 10.6116M2.25916 10.6998C2.48463 10.8102 2.73748 10.9257 3.01614 11.0438C3.2298 11.1344 3.45716 11.2266 3.69787 11.3195M2.25916 10.6998C3.30474 7.32466 7.61701 0.828954 15.6157 1.00345C23.6144 1.17794 27.7451 7.41122 28.9214 10.6116M28.9214 10.6116C28.8826 10.6254 28.8439 10.6392 28.8056 10.6529M28.9214 10.6116L28.8056 10.6529M28.8056 10.6529C28.6184 10.7197 28.4423 10.7824 28.3333 10.8257C27.9971 10.9591 27.6618 11.0864 27.328 11.2078M27.328 11.2078C22.7013 12.8906 18.365 13.4431 15.9824 13.4431C10.592 13.4431 6.34055 12.3392 3.69787 11.3195M27.328 11.2078C28.1499 9.34662 26.9855 8.83259 26.3006 8.80822C26.7938 7.65754 25.9581 6.95891 25.2732 6.75343C25.2732 5.60274 23.7664 5.20816 23.2184 5.15471C22.4071 2.82853 20.9581 2.64384 19.9307 3.0548C19.9307 1.05597 16.4398 1.30134 15.3942 2.31921C14.1773 0.589042 11.408 1.66487 10.6891 3.40979C8.62938 2.50413 7.8138 3.91872 7.55241 5.15471C6.16363 5.15471 5.75267 5.93151 5.75267 6.75343C4.72527 6.75343 4.10883 7.78082 4.51979 9.21918C3.83486 9.31801 3.04034 9.87643 3.69787 11.3195" stroke="black"/>
<circle cx="18.904" cy="8.80832" r="1.23288" fill="black"/>
<circle cx="11.9179" cy="8.80832" r="1.23288" fill="black"/>
<path d="M14.5891 10.6575C14.8631 11.0684 15.6165 11.6438 16.4384 10.6575" stroke="black" stroke-linecap="round"/>
<path d="M29 17L31.6712 18.6438" stroke="black" stroke-linecap="round"/>
<ellipse cx="9.86293" cy="10.8631" rx="0.821918" ry="0.821918" fill="#F786A0"/>
<ellipse cx="20.9589" cy="10.8631" rx="0.821918" ry="0.821918" fill="#F786A0"/>
<path d="M15.0368 14.3945C7.81573 14.3945 4.24209 12.6576 2.79788 12.1018C2.18019 13.5611 4.47231 25.452 16.0274 25.452C27.5825 25.452 29.5 15 29 11.5C23.0581 13.6677 17.1 14.325 15.0368 14.3945Z" fill="#F69200"/>
<path d="M14.6197 14.5618C7.84996 14.5618 4.14588 12.9509 2.79193 12.4625C2.21285 13.7449 4.21581 23.5851 15.0396 24.002C24.6044 24.3705 27.8447 16.0647 27.3289 12.0961C19.9316 14.1509 16.5539 14.5008 14.6197 14.5618Z" fill="#FFA726"/>
<path d="M14.5888 14.3563C8.496 14.3563 3.71485 12.534 2.4963 12.0961C2.08532 13.5344 5.79488 21.7417 13.7975 22.1646C21.5752 22.5755 25.5325 16.2706 25.0682 12.7125C19.1093 14.1509 16.3296 14.3016 14.5888 14.3563Z" fill="#FFC36C" fill-opacity="0.76"/>
<path d="M11.9801 25.2467C11.8054 26.5521 11.9346 28.9453 13.1924 28.9453C14.4502 28.9453 14.5093 26.9872 14.2764 25.6818" stroke="black"/>
<path d="M19.9894 25.2467C20.1816 26.5521 20.4191 28.9453 19.0352 28.9453C17.6513 28.9453 17.7775 27.096 17.7775 25.6818" stroke="black"/>
<path d="M4.59687 17.4173C3.99108 16.4336 1.94654 17.4173 1 18.0322L1.75723 19.8767C2.95619 19.4668 5.20265 18.4011 4.59687 17.4173Z" fill="#F8EED9"/>
<path d="M1 18.0322C1.94654 17.4173 3.99108 16.4336 4.59687 17.4173C5.20265 18.4011 2.95619 19.4668 1.75723 19.8767" stroke="black" stroke-linecap="round"/>
</svg>
